<svg width="103" height="64" viewBox="0 0 103 64" fill="none" xmlns="http://www.w3.org/2000/svg">
<g clip-path="url(#clip0_7428_1038)">
<path d="M60.1391 46.725V39.9908H64.8089V35.5587H60.1391V28.7893H65.1574V24.3572H62.7388H54.6817V25.2816H55.6401V28.719H50.0956V29.6434H55.6401V30.4518H53.4934V31.3761H55.6401V34.8487H58.2851V35.7731H53.8244V36.6975H55.6401V45.8358H54.5911V46.7602H55.6401V51.1536H65.1574V46.7215H60.1391V46.725ZM53.5666 28.0196H54.6608V27.0952H53.5666V28.0196ZM51.5767 28.0196H52.6709V27.0952H51.5767V28.0196ZM50.5765 38.5497H54.4204V37.6254H50.5765V38.5497ZM53.7025 50.2327H49.8586V51.1571H53.7025V50.2327ZM48.0604 47.4737V28.0336C48.0604 26.0372 46.3876 24.3502 44.4082 24.3502H44.1224H36.0653V25.2745H37.2955V28.596H40.0556V29.5203H37.2955V30.7927H38.5501V31.7171H37.2955V46.1802H36.4452V47.1046H37.2955V50.2257H33.9744V51.1501H44.4082C46.3876 51.1501 48.0604 49.463 48.0604 47.4666V47.4737ZM41.798 28.7858H43.3732C43.4882 28.7858 43.5614 28.8596 43.5614 28.9791V46.5352C43.5614 46.6512 43.4882 46.725 43.3732 46.725H41.798V28.7858ZM35.4764 47.1116V46.1873H34.3821V47.1116H35.4764ZM36.7797 30.7962H33.497V31.7206H36.7797V30.7962ZM23.4221 38.6657V37.7413H22.3278V38.6657H23.4221ZM21.4322 37.7378H20.3379V38.6622H21.4322V37.7378ZM25.2238 51.1571H29.7228V24.3537H20.4216V25.2781H25.2238V28.7155H27.8026V29.6399H25.2238V37.7378H24.3944V38.6622H25.2238V39.3546H18.5711V40.279H25.2238V41.0874H21.9689V42.0118H25.2238V48.7812H23.2513V49.7055H25.2238V51.1501V51.1571ZM5.07054 36.5815V35.6571H3.98674V36.5815H5.07054ZM3.72188 44.5635H2.62762V45.4878H3.72188V44.5635ZM17.6441 35.991V28.0336C17.6441 26.0372 15.9713 24.3502 13.9919 24.3502H3.03187V25.2745H6.8827V35.6536H5.96268V36.578H6.8827V44.5599H4.63842V45.4843H6.8827V46.1767H0V47.1011H6.8827V47.9095H3.39779V48.8339H6.8827V51.1431H11.3817V39.8361H11.5002L14.7865 51.1431H19.5538L15.9748 39.2457C17.0308 38.6411 17.6476 37.4637 17.6476 35.9805L17.6441 35.991ZM13.1451 35.2248C13.1451 35.3408 13.0719 35.4181 12.9534 35.4181H11.3782V28.7858H12.9534C13.0684 28.7858 13.1451 28.8596 13.1451 28.9756V35.2213V35.2248Z" fill="white"/>
<path d="M72.3572 18.9375V16.7056L72.1516 16.8778C71.7613 17.2047 71.4372 17.992 71.4372 18.3013C71.4372 18.6809 71.5382 18.9375 72.1167 18.9375H72.3537H72.3572ZM70.1582 13.4088V13.3736C70.4126 12.9448 71.249 11.553 72.2352 11.553C72.9671 11.553 73.7163 12.3086 73.7163 13.4228V20.2063C73.7163 20.3082 73.6466 20.3785 73.5456 20.3785H71.6742C70.4126 20.3434 70.0397 19.6053 70.0397 18.5227C70.0397 16.7372 72.3537 14.8639 72.3711 14.8322V14.0238C72.3711 13.697 72.3189 13.3033 71.9948 13.3033C71.7404 13.3033 71.4511 13.6302 71.1096 14.1258C71.0748 14.1785 71.0399 14.2101 70.9737 14.2101C70.9075 14.2101 70.2941 13.7286 70.207 13.6091C70.1547 13.5564 70.1408 13.5247 70.1408 13.472C70.1408 13.4369 70.1408 13.4193 70.1582 13.4017M68.5377 20.382C68.4367 20.382 68.367 20.3117 68.367 20.2098V11.9501C68.367 11.8482 68.4367 11.7779 68.5377 11.7779H69.5414C69.6425 11.7779 69.7296 11.8482 69.7296 11.9501V20.2098C69.7296 20.3117 69.6459 20.382 69.5414 20.382H68.5377ZM68.367 10.5442C68.367 10.4739 68.4018 10.4423 68.4367 10.4072L69.4403 9.84129C69.51 9.80615 69.524 9.80615 69.5414 9.80615C69.6425 9.80615 69.7122 9.87644 69.7296 9.96079V11.1804C69.7296 11.2823 69.6459 11.3526 69.5414 11.3526H68.5377C68.4367 11.3526 68.367 11.2823 68.367 11.1804V10.5442ZM67.7571 20.2098C67.7571 20.3117 67.6735 20.382 67.5689 20.382H66.5653C66.4642 20.382 66.3771 20.3117 66.3771 20.2098V10.1998C66.3945 10.1471 66.4294 10.0979 66.4607 10.0803L67.4644 9.51442C67.4644 9.51442 67.4992 9.47927 67.5167 9.47927C67.5341 9.47927 67.5515 9.4617 67.5689 9.4617C67.67 9.4617 67.7397 9.532 67.7571 9.61635V20.2098ZM64.4186 18.9375V16.7056L64.213 16.8778C63.8227 17.2047 63.4986 17.992 63.4986 18.3013C63.4986 18.6809 63.5996 18.9375 64.1781 18.9375H64.4151H64.4186ZM62.2231 13.4088V13.3736C62.4775 12.9448 63.3139 11.553 64.3001 11.553C65.0319 11.553 65.7812 12.3086 65.7812 13.4228V20.2063C65.7812 20.3082 65.7115 20.3785 65.6104 20.3785H63.739C62.4775 20.3434 62.1046 19.6053 62.1046 18.5227C62.1046 16.7372 64.4186 14.8639 64.436 14.8322V14.0238C64.436 13.697 64.3837 13.3033 64.0631 13.3033C63.8087 13.3033 63.5195 13.6302 63.1779 14.1258C63.1431 14.1785 63.1082 14.2101 63.042 14.2101C62.9758 14.2101 62.3625 13.7286 62.2754 13.6091C62.2231 13.5564 62.2091 13.5247 62.2091 13.472C62.2091 13.4369 62.2091 13.4193 62.2266 13.4017M61.8746 19.1975V20.2801C61.8746 20.3644 61.8223 20.4347 61.7561 20.4523C61.6376 20.4875 61.5191 20.4875 61.4494 20.4875C60.4458 20.4875 59.6442 19.6966 59.6442 18.7371V10.5478C59.6442 10.495 59.6791 10.4458 59.7105 10.4107C59.7453 10.3931 60.7141 9.84481 60.7141 9.84481C60.7838 9.80966 60.7978 9.80966 60.8326 9.80966C60.9162 9.80966 60.9859 9.87996 61.0034 9.96431V11.6971H61.6829C61.784 11.6971 61.8537 11.7674 61.8537 11.8693V12.9694C61.8537 13.0713 61.7875 13.1592 61.6829 13.1592H61.0034V18.6703C61.0034 18.8777 61.209 19.0499 61.4459 19.0499C61.5331 19.0499 61.5993 19.0324 61.7003 19.0148C61.8014 19.0324 61.8711 19.0991 61.8711 19.2046M58.9647 20.1746C58.9647 20.2941 58.8811 20.382 58.7591 20.382H57.7032C57.5847 20.382 57.4975 20.2977 57.4975 20.1746V9.8202C57.4975 9.71828 57.5812 9.61283 57.7032 9.61283H58.7591C58.8776 9.61283 58.9647 9.71476 58.9647 9.8202V20.1746ZM56.2116 9.61635H57.0968C57.2153 9.61635 57.285 9.73585 57.2327 9.85535L56.3824 11.8798C56.3301 11.9993 56.1942 12.0872 56.0757 12.0872H55.3787C55.2602 12.0872 55.1905 11.9677 55.2428 11.8482L55.9084 9.82372C55.9607 9.72179 56.0966 9.61635 56.2151 9.61635M53.6432 13.4439C53.6432 13.2541 53.4376 13.0995 53.2007 13.0995C52.9463 13.0995 52.7406 13.2541 52.7406 13.4439V18.6457C52.7406 18.8355 52.9463 18.9902 53.2007 18.9902H53.6432V13.4439ZM55.0233 20.2098C55.0233 20.3117 54.9536 20.382 54.8525 20.382H53.2007C52.1796 20.382 51.378 19.6439 51.378 18.6985V13.3947C51.378 12.4492 52.1796 11.6936 53.2007 11.6936C53.354 11.6936 53.5073 11.7111 53.6607 11.7463V10.2174C53.6607 10.1646 53.6955 10.1154 53.7443 10.0979L54.7828 9.49685C54.8176 9.47927 54.8351 9.47927 54.849 9.47927C54.9327 9.47927 55.0198 9.54605 55.0198 9.63392V20.2098H55.0233ZM48.2277 13.4088C48.2277 13.219 48.0221 13.0467 47.7677 13.0467C47.5307 13.0467 47.3251 13.219 47.3251 13.4088V18.7125C47.3251 18.9199 47.5307 19.0921 47.7677 19.0921C48.0221 19.0921 48.2277 18.9199 48.2277 18.7125V13.4088ZM49.5903 18.7828C49.5903 19.7458 48.7888 20.5331 47.7677 20.5331C46.7466 20.5331 45.9451 19.7423 45.9451 18.7828V13.356C45.9451 12.3965 46.7605 11.6057 47.7677 11.6057C48.7748 11.6057 49.5903 12.3965 49.5903 13.356V18.7828ZM45.6732 11.8834V13.103C45.6732 13.1873 45.607 13.2576 45.5199 13.2576C44.5511 13.3244 43.9866 13.8938 43.9866 14.6143V20.2133C43.9866 20.3152 43.9029 20.3855 43.7984 20.3855H42.7947C42.6936 20.3855 42.6065 20.3152 42.6065 20.2133V11.8869C42.6588 11.8166 42.725 11.7849 42.7947 11.7849C42.8121 11.7849 42.847 11.7849 42.8783 11.8025C42.9132 11.8201 43.7809 12.3016 43.7809 12.3016C44.2932 11.922 44.802 11.7182 45.499 11.7182C45.6001 11.7357 45.6523 11.8025 45.6698 11.8904M40.756 20.382C40.655 20.382 40.5853 20.3117 40.5853 20.2098V11.9501C40.5853 11.8482 40.6515 11.7779 40.756 11.7779H41.7597C41.8608 11.7779 41.9479 11.8482 41.9479 11.9501V20.2098C41.9479 20.3117 41.8642 20.382 41.7597 20.382H40.756ZM40.5853 10.5442C40.5853 10.4739 40.6201 10.4423 40.6515 10.4072L41.6551 9.84129C41.7248 9.80615 41.7388 9.80615 41.7562 9.80615C41.8573 9.80615 41.927 9.87644 41.9444 9.96079V11.1804C41.9444 11.2823 41.8608 11.3526 41.7562 11.3526H40.7526C40.6515 11.3526 40.5818 11.2823 40.5818 11.1804V10.5442H40.5853ZM37.1979 11.7955V18.4911C37.1979 18.7477 37.4698 18.9726 37.8113 18.9726C38.1702 18.9726 38.4421 18.7477 38.4421 18.4911V15.3665H38.0169C37.9158 15.3665 37.8461 15.2821 37.8461 15.1943V14.4913C37.8461 14.4069 37.9158 14.3191 38.0169 14.3191H39.735C39.836 14.3191 39.9057 14.4034 39.9057 14.5089V18.354C39.9057 19.5385 38.9857 20.4839 37.8113 20.4839C36.6369 20.4839 35.7169 19.5385 35.7169 18.354V12.1575C35.7169 11.3843 35.8353 10.7165 36.1594 10.2525C36.2779 10.0451 36.501 9.85887 36.7031 9.75342C37.4698 9.32463 38.679 9.61635 39.8186 10.4388C39.8883 10.4915 39.9057 10.5232 39.9057 10.5934C39.9057 10.611 39.9057 10.6462 39.8883 10.6637L39.3447 11.5389C39.3098 11.5916 39.261 11.6233 39.1913 11.6233C39.139 11.6233 39.1077 11.6057 39.0728 11.5881C38.4769 11.1066 37.9158 10.8852 37.5743 11.075C37.3025 11.2296 37.2014 11.4194 37.2014 11.7955" fill="white"/>
<path d="M102.55 21.1939H98.1002V4.48833H11.3329V21.0744H6.88269V0H102.55V21.1939Z" fill="white"/>
<path d="M102.55 54.3766H98.1002V59.5117H11.3329V54.4961H6.88269V64H102.55V54.3766Z" fill="white"/>
<path d="M70.9911 38.7676L69.3985 51.2801H71.7438L72.0296 48.7003H72.4896L72.7893 51.2801H75.1625L73.5734 38.7676H70.9946H70.9911ZM71.8414 46.4474L72.1899 43.2876H72.2143L72.5628 46.4474H71.8414Z" fill="white"/>
<path d="M94.8662 44.2225V40.5918C94.8662 39.5866 94.0577 38.7711 93.061 38.7711H89.6772V51.2836H92.0086V46.7777L93.3189 51.2836H95.7862L94.1309 45.776C94.5979 45.4632 94.8697 44.9079 94.8697 44.2225H94.8662ZM92.5348 43.8183H92.0086V41.0733H92.5348V43.8183Z" fill="white"/>
<path d="M84.8785 38.7676H81.4946V51.2801H83.826V46.1205H84.8785C85.8752 46.1205 86.6837 45.3051 86.6837 44.2998V40.5883C86.6837 39.5831 85.8752 38.7676 84.8785 38.7676ZM84.3523 43.8183H83.826V41.0733H84.3523V43.8183Z" fill="white"/>
<path d="M101.195 38.7676H99.6162C98.6195 38.7676 97.811 39.5831 97.811 40.5883V49.4595C97.811 50.4647 98.6195 51.2801 99.6162 51.2801H101.195C102.192 51.2801 103 50.4647 103 49.4595V40.5883C103 39.5831 102.192 38.7676 101.195 38.7676ZM100.669 48.978H100.142V41.0733H100.669V48.978Z" fill="white"/>
<path d="M78.9507 24.2377H76.6193V36.7502H78.9507V24.2377Z" fill="white"/>
<path d="M71.7334 24.2377H69.3985V36.7502H73.8627V34.448H71.7334V24.2377Z" fill="white"/>
<path d="M94.8697 34.448H92.5801V31.6538H94.7129V29.3516H92.5801V26.5398H94.8697V24.2377H90.2487V36.7502H94.8697V34.448Z" fill="white"/>
<path d="M87.7849 36.7502L86.147 29.2286L87.6002 24.2377H85.2862L84.4603 26.9546V24.2377H82.1289V36.7502H84.4603V32.6766L84.5021 32.5571L85.4012 36.7502H87.7849Z" fill="white"/>
</g>
<defs>
<clipPath id="clip0_7428_1038">
<rect width="103" height="64" fill="white"/>
</clipPath>
</defs>
</svg>
